<svg xmlns="http://www.w3.org/2000/svg" version="1.1" xmlns:xlink="http://www.w3.org/1999/xlink" width="512" height="512" x="0" y="0" viewBox="0 0 42 42" style="enable-background:new 0 0 512 512" xml:space="preserve" class=""><g><g fill="#000"><path d="M10.514 23.14v.002a.75.75 0 1 1-.092 1.495 6.265 6.265 0 0 1-.86-12.413 8.215 8.215 0 0 1 15.241-5.151 5.84 5.84 0 0 1 6.737 4.104 6.756 6.756 0 0 1 .05 13.42v-.002a.751.751 0 0 1-.85-.743.75.75 0 0 1 .691-.747 5.256 5.256 0 0 0-.057-10.437l-.996-.111-.279-.964a4.34 4.34 0 0 0-5.007-3.048l-1.043.204-.538-.916a6.715 6.715 0 0 0-12.46 4.211l.169 1.395-1.38.259a4.766 4.766 0 0 0 .674 9.442z" fill="#000000" opacity="1" data-original="#000000" class=""></path><path fill-rule="evenodd" d="M18.058 26.796h-1.33l2.542-7.111h1.43l2.543 7.111h-1.336l-.601-1.838h-2.647zM20 20.951h-.03l-.99 3.026h2.006z" clip-rule="evenodd" fill="#000000" opacity="1" data-original="#000000" class=""></path><path d="M25.273 26.796h-1.271v-7.111h1.271z" fill="#000000" opacity="1" data-original="#000000" class=""></path><path fill-rule="evenodd" d="M15.17 15.411a2 2 0 0 0-2 2v11.66a2 2 0 0 0 2 2h5.134v1.88h-1.32a1 1 0 0 0-1 1v1.342h-5.53v-1.342a1 1 0 0 0-1-1H7.42a1 1 0 0 0-1 1v4.033a1 1 0 0 0 1 1h4.033a1 1 0 0 0 1-1v-1.299h5.53v1.299a1 1 0 0 0 1 1h4.033a1 1 0 0 0 1-1v-1.299h5.53v1.299a1 1 0 0 0 1 1h4.033a1 1 0 0 0 1-1v-4.033a1 1 0 0 0-1-1h-4.033a1 1 0 0 0-1 1v1.342h-5.53v-1.342a1 1 0 0 0-1-1h-1.32v-1.88h5.132a2 2 0 0 0 2-2V17.41a2 2 0 0 0-2-2zm11.66 1.5H15.17a.5.5 0 0 0-.5.5v11.66a.5.5 0 0 0 .5.5h11.66a.5.5 0 0 0 .5-.5V17.41a.5.5 0 0 0-.5-.5zm-7.346 20.573v-3.033h3.033v3.033zM7.92 34.451v3.033h3.033v-3.033zm23.126 3.033v-3.033h3.033v3.033z" clip-rule="evenodd" fill="#000000" opacity="1" data-original="#000000" class=""></path></g></g></svg>