<?xml version="1.0" standalone="no"?><!DOCTYPE svg PUBLIC "-//W3C//DTD SVG 1.1//EN" "http://www.w3.org/Graphics/SVG/1.1/DTD/svg11.dtd"><svg t="1636164681404" class="icon" viewBox="0 0 1024 1024" version="1.1" xmlns="http://www.w3.org/2000/svg" p-id="8151" xmlns:xlink="http://www.w3.org/1999/xlink" width="16" height="16"><defs><style type="text/css"></style></defs>
<path style="stroke: none;fill: #15ad31;" d="M660.48 481.28h-117.76V363.52c0-15.36-15.36-30.72-30.72-30.72s-30.72 15.36-30.72 30.72v117.76H363.52c-15.36 0-30.72 15.36-30.72 30.72s15.36 30.72 30.72 30.72h117.76v117.76c0 15.36 15.36 30.72 30.72 30.72s30.72-15.36 30.72-30.72v-117.76h117.76c15.36 0 30.72-15.36 30.72-30.72s-15.36-30.72-30.72-30.72z"></path>
<path style="stroke: none;fill: #15ad31;" d="M768 153.6H256c-56.32 0-102.4 46.08-102.4 102.4v512c0 56.32 46.08 102.4 102.4 102.4h512c56.32 0 102.4-46.08 102.4-102.4V256c0-56.32-46.08-102.4-102.4-102.4z m40.96 614.4c0 20.48-20.48 40.96-40.96 40.96H256c-20.48 0-40.96-20.48-40.96-40.96V256c0-20.48 20.48-40.96 40.96-40.96h512c20.48 0 40.96 20.48 40.96 40.96v512z"></path>
</svg>