<?xml version="1.0" standalone="no"?><!DOCTYPE svg PUBLIC "-//W3C//DTD SVG 1.1//EN" "http://www.w3.org/Graphics/SVG/1.1/DTD/svg11.dtd"><svg t="1637740824304" class="icon" viewBox="0 0 1024 1024" version="1.1" xmlns="http://www.w3.org/2000/svg" p-id="8694" width="16" height="16" xmlns:xlink="http://www.w3.org/1999/xlink"><defs><style type="text/css"></style></defs><path d="M914.285714 420.571429v109.714285q0 22.857143-16 38.857143t-38.857143 16h-237.714285v237.714286q0 22.857143-16 38.857143t-38.857143 16H457.142857q-22.857143 0-38.857143-16t-16-38.857143v-237.714286H164.571429q-22.857143 0-38.857143-16t-16-38.857143V420.571429q0-22.857143 16-38.857143t38.857143-16h237.714285V128q0-22.857143 16-38.857143t38.857143-16h109.714286q22.857143 0 38.857143 16t16 38.857143v237.714286h237.714285q22.857143 0 38.857143 16t16 38.857143z" p-id="8695" fill="#52c41a"></path></svg>